<?xml version="1.0" standalone="no"?>
<!DOCTYPE svg PUBLIC "-//W3C//DTD SVG 20010904//EN"
 "http://www.w3.org/TR/2001/REC-SVG-20010904/DTD/svg10.dtd">
<svg version="1.0" xmlns="http://www.w3.org/2000/svg"
 width="256.000000pt" height="256.000000pt" viewBox="0 0 256.000000 256.000000"
 preserveAspectRatio="xMidYMid meet">

<g transform="translate(0.000000,256.000000) scale(0.100000,-0.100000)"
fill="#000000" stroke="none">
<path d="M0 1280 l0 -1280 1280 0 1280 0 0 1280 0 1280 -1280 0 -1280 0 0
-1280z m1545 956 c340 -97 598 -356 693 -694 24 -88 27 -113 27 -262 0 -149
-3 -174 -27 -262 -49 -174 -145 -336 -275 -458 -120 -115 -267 -196 -433 -242
-73 -19 -109 -23 -250 -23 -141 0 -177 4 -250 23 -288 79 -510 261 -641 527
-208 423 -84 947 289 1224 127 93 251 149 412 186 105 24 341 14 455 -19z"/>
<path d="M1238 1986 c-80 -28 -419 -361 -472 -463 -36 -71 -2 -157 75 -187 72
-29 120 -5 216 107 l78 91 5 -436 c5 -424 6 -437 26 -465 12 -15 42 -37 68
-47 45 -19 47 -19 92 0 26 10 56 32 68 47 20 28 21 41 26 465 l5 436 78 -91
c96 -112 144 -136 216 -107 75 30 111 116 76 185 -30 58 -184 227 -308 338
-154 137 -180 151 -249 127z"/>
</g>
</svg>
