<svg xmlns="http://www.w3.org/2000/svg" viewBox="-18000.1 -24731 49410 49330">
	<path d="m 0 -25 l 0 0 l 0 0 l 0 0 l 0 0 l 0 0 l 0 0 l 0 0 l -717.5 -163 z m 0 -23900 c -8500 2425 -14950 8900 -17325 17350 c 0 2200 -675 2825 -675 6550 c 0 3725 75 4350 675 6550 c 1225 4350 3625 8400 6875 11450 c 3000 2875 6675 4900 10825 6050 c 1825 475 2725 575 6250 575 c 3525 0 4425 -100 6250 -575 c 7200 -1975 12750 -6525 16025 -13175 c 5200 -10575 2100 -23675 -7225 -30600 c -3175 -2325 -6275 -3725 -10300 -4650 c -2625 -600 -8525 -350 -11375 475 z m 7675 6250 c 2000 700 10475 9025 11800 11575 c 900 1775 50 3925 -1875 4675 c -1800 725 -3000 125 -5400 -2675 l -1950 -2275 l -125 10900 c -125 10600 -150 10925 -650 11625 c -300 375 -1050 925 -1700 1175 c -1125 475 -1175 475 -2300 0 c -650 -250 -1400 -800 -1700 -1175 c -500 -700 -525 -1025 -650 -11625 l -125 -10900 l -1950 2275 c -2400 2800 -3600 3400 -5400 2675 c -1875 -750 -2775 -2900 -1900 -4625 c 750 -1450 4600 -5675 7700 -8450 c 3850 -3425 4500 -3775 6225 -3175 z" fill="#000000"/>
</svg>